<svg width="352" height="352" viewBox="0 0 352 352" fill="none" xmlns="http://www.w3.org/2000/svg">
<path d="M179.466 124.92C135.466 124.92 99.7979 160.589 99.7977 204.588H16.8777C16.8779 114.793 89.6709 42.0002 179.466 42V124.92Z" fill="#009BC6"/>
<path d="M179.466 124.92C135.466 124.92 99.7979 160.589 99.7977 204.588H16.8777C16.8779 114.793 89.6709 42.0002 179.466 42V124.92Z" stroke="#009BC6"/>
<path d="M179.103 206.033C223.103 206.033 258.771 241.701 258.771 285.701H341.691C341.691 195.906 268.898 123.113 179.103 123.113V206.033Z" fill="#009BC6"/>
<path d="M179.103 206.033C223.103 206.033 258.771 241.701 258.771 285.701H341.691C341.691 195.906 268.898 123.113 179.103 123.113V206.033Z" stroke="#009BC6"/>
<circle cx="233.178" cy="81.9685" r="39.9685" fill="#009BC6"/>
<path d="M59.1973 213.63L100.937 285.926H17.4572L59.1973 213.63Z" fill="#009BC6"/>
</svg>
